<?xml version="1.0" encoding="utf-8"?>
<!-- Generator: Adobe Illustrator 19.1.0, SVG Export Plug-In . SVG Version: 6.00 Build 0)  -->
<svg version="1.1" id="Layer_1" xmlns="http://www.w3.org/2000/svg" xmlns:xlink="http://www.w3.org/1999/xlink" x="0px" y="0px"
	 viewBox="0 0 207.7 38.9" style="enable-background:new 0 0 207.7 38.9;" xml:space="preserve">
<style type="text/css">
	.st0{fill:#FFFFFF;}
	.st1{fill:none;}
</style>
<g>
	<g>
		<path class="st0" d="M41.4,36.2V9.7h9.1c1.5,0,2.9,0.2,4.1,0.5c1.2,0.3,2.2,0.8,3,1.4s1.5,1.4,1.9,2.2c0.4,0.9,0.7,1.8,0.7,2.9
			c0,0.8-0.1,1.4-0.3,2.1c-0.2,0.6-0.5,1.2-0.8,1.6c-0.3,0.5-0.6,0.9-1,1.2c-0.4,0.4-0.7,0.6-1.1,0.9c1.6,0.4,2.8,1.2,3.7,2.2
			c0.9,1,1.3,2.3,1.3,3.9c0,1.1-0.2,2.1-0.7,3.1c-0.5,0.9-1.1,1.7-2,2.4c-0.9,0.7-1.9,1.2-3.2,1.5c-1.2,0.4-2.7,0.5-4.2,0.5H41.4z
			 M47.2,20.7h6.1c0.3-0.4,0.5-0.8,0.7-1.4c0.2-0.6,0.3-1.2,0.3-2c0-1-0.4-1.8-1.1-2.4c-0.7-0.5-1.7-0.8-3.1-0.8h-3V20.7z
			 M47.2,31.8h4.2c0.7,0,1.4-0.1,2-0.2c0.6-0.1,1.1-0.3,1.5-0.6c0.4-0.3,0.7-0.6,1-1.1c0.2-0.4,0.4-0.9,0.4-1.5
			c0-1.2-0.4-2.1-1.1-2.7s-1.8-0.9-3.2-0.9h-4.8V31.8z"/>
		<path class="st0" d="M63.6,26.5c0-1.6,0.2-3,0.7-4.2s1.2-2.3,2.1-3.2c0.9-0.9,2-1.6,3.2-2c1.3-0.5,2.6-0.7,4.1-0.7
			c1.5,0,2.9,0.2,4.2,0.7c1.2,0.5,2.3,1.1,3.2,2c0.9,0.9,1.6,1.9,2.1,3.2s0.7,2.7,0.7,4.2c0,1.6-0.2,3-0.7,4.3s-1.2,2.3-2.1,3.2
			c-0.9,0.9-2,1.6-3.2,2c-1.2,0.5-2.6,0.7-4.2,0.7c-1.5,0-2.9-0.2-4.1-0.7c-1.3-0.5-2.3-1.1-3.2-2c-0.9-0.9-1.6-1.9-2.1-3.2
			S63.6,28.1,63.6,26.5z M69.4,26.5c0,1.1,0.1,2,0.3,2.7c0.2,0.7,0.5,1.4,0.9,1.8c0.4,0.5,0.8,0.8,1.4,1s1.1,0.3,1.8,0.3
			s1.2-0.1,1.8-0.3s1-0.5,1.4-1c0.4-0.5,0.7-1.1,0.9-1.8c0.2-0.8,0.3-1.7,0.3-2.7c0-1.1-0.1-2-0.3-2.7s-0.5-1.4-0.9-1.8
			c-0.4-0.5-0.8-0.8-1.4-1s-1.1-0.3-1.8-0.3s-1.2,0.1-1.8,0.3s-1,0.6-1.4,1c-0.4,0.5-0.7,1.1-0.9,1.8C69.5,24.5,69.4,25.4,69.4,26.5
			z"/>
		<path class="st0" d="M85.3,26.5c0-1.6,0.2-3,0.7-4.2s1.2-2.3,2.1-3.2c0.9-0.9,2-1.6,3.2-2c1.3-0.5,2.6-0.7,4.1-0.7
			c1.5,0,2.9,0.2,4.2,0.7c1.2,0.5,2.3,1.1,3.2,2c0.9,0.9,1.6,1.9,2.1,3.2s0.7,2.7,0.7,4.2c0,1.6-0.2,3-0.7,4.3s-1.2,2.3-2.1,3.2
			c-0.9,0.9-2,1.6-3.2,2c-1.2,0.5-2.6,0.7-4.2,0.7c-1.5,0-2.9-0.2-4.1-0.7c-1.3-0.5-2.3-1.1-3.2-2c-0.9-0.9-1.6-1.9-2.1-3.2
			S85.3,28.1,85.3,26.5z M91.1,26.5c0,1.1,0.1,2,0.3,2.7c0.2,0.7,0.5,1.4,0.9,1.8c0.4,0.5,0.8,0.8,1.4,1s1.1,0.3,1.8,0.3
			s1.2-0.1,1.8-0.3s1-0.5,1.4-1c0.4-0.5,0.7-1.1,0.9-1.8c0.2-0.8,0.3-1.7,0.3-2.7c0-1.1-0.1-2-0.3-2.7s-0.5-1.4-0.9-1.8
			c-0.4-0.5-0.8-0.8-1.4-1s-1.1-0.3-1.8-0.3s-1.2,0.1-1.8,0.3s-1,0.6-1.4,1c-0.4,0.5-0.7,1.1-0.9,1.8C91.2,24.5,91.1,25.4,91.1,26.5
			z"/>
		<path class="st0" d="M108,36.2V8.9h5.9V24h2.1l3.7-7.3h6.2l-5.2,9.3l6.1,10.3h-6.4l-4.4-7.9h-2.2v7.9H108z"/>
		<path class="st0" d="M128.6,36.2V16.7h3.4l0.3,1.9c1-0.7,2-1.3,3.1-1.7c1.1-0.4,2.3-0.6,3.6-0.6c1,0,1.9,0.1,2.7,0.3
			c0.8,0.2,1.5,0.6,2,1.1s1,1.2,1.3,2.1c0.3,0.9,0.5,2,0.5,3.4v12.9h-3.8V23.3c0-0.8-0.1-1.4-0.2-1.9s-0.3-1-0.6-1.3
			s-0.6-0.6-1.1-0.7c-0.4-0.1-1-0.2-1.6-0.2c-1.1,0-2.1,0.2-3,0.6c-0.9,0.4-1.8,0.9-2.6,1.6v14.9H128.6z"/>
		<path class="st0" d="M149.1,26.4c0-1.5,0.2-2.9,0.6-4.2c0.4-1.2,0.9-2.3,1.6-3.2c0.7-0.9,1.5-1.6,2.5-2c1-0.5,2.1-0.7,3.4-0.7
			c0.7,0,1.2,0,1.8,0.1c0.5,0.1,1,0.2,1.4,0.4c0.4,0.2,0.9,0.4,1.2,0.6c0.4,0.2,0.7,0.5,1.1,0.8V8.9h3.8v27.4h-3.4l-0.3-1.7
			c-0.4,0.3-0.7,0.6-1.1,0.9c-0.4,0.3-0.8,0.5-1.2,0.7c-0.4,0.2-0.9,0.3-1.5,0.4c-0.5,0.1-1.2,0.1-1.9,0.1c-1.2,0-2.4-0.2-3.4-0.7
			c-1-0.5-1.8-1.2-2.5-2.1s-1.2-2-1.6-3.2S149.1,28,149.1,26.4z M152.9,26.4c0,1.2,0.1,2.2,0.3,3.1s0.5,1.7,1,2.3
			c0.4,0.6,1,1.1,1.7,1.4s1.5,0.5,2.5,0.5c0.8,0,1.6-0.1,2.3-0.4c0.7-0.3,1.3-0.6,1.9-1V20.6c-0.6-0.4-1.2-0.8-1.9-1
			c-0.7-0.3-1.5-0.4-2.3-0.4c-1,0-1.8,0.2-2.5,0.5c-0.7,0.3-1.3,0.8-1.7,1.4c-0.4,0.6-0.8,1.4-1,2.3S152.9,25.3,152.9,26.4z"/>
		<path class="st0" d="M170,35.1l0.7-2.7c0.5,0.2,1,0.4,1.5,0.6c0.5,0.1,1,0.3,1.5,0.4s1,0.2,1.6,0.3c0.6,0,1.2,0.1,1.9,0.1
			c1.3,0,2.3-0.3,2.8-0.8c0.6-0.5,0.9-1.2,0.9-2.1c0-0.4-0.1-0.8-0.3-1.1c-0.2-0.3-0.5-0.6-0.9-0.9c-0.4-0.3-0.9-0.5-1.4-0.7
			c-0.5-0.2-1.2-0.4-1.8-0.6c-0.9-0.2-1.7-0.5-2.5-0.9c-0.8-0.4-1.4-0.8-2-1.2c-0.6-0.5-1-1-1.3-1.6c-0.3-0.6-0.5-1.3-0.5-2
			c0-0.9,0.2-1.7,0.5-2.4c0.3-0.7,0.8-1.3,1.5-1.8c0.7-0.5,1.5-0.9,2.4-1.1c0.9-0.3,2-0.4,3.2-0.4c1.4,0,2.7,0.1,3.8,0.4
			c1.1,0.3,2,0.5,2.6,0.9l-0.7,2.7c-0.5-0.1-0.9-0.3-1.3-0.4c-0.4-0.1-0.8-0.2-1.2-0.3c-0.4-0.1-0.9-0.2-1.4-0.2
			c-0.5-0.1-1-0.1-1.7-0.1c-1.3,0-2.3,0.2-2.9,0.7c-0.6,0.5-0.9,1.1-0.9,1.9c0,0.4,0.1,0.7,0.2,1.1c0.1,0.3,0.4,0.6,0.7,0.9
			c0.3,0.3,0.7,0.5,1.2,0.7c0.5,0.2,1.1,0.4,1.9,0.6c1.2,0.3,2.2,0.6,3,1s1.6,0.8,2.1,1.3c0.6,0.5,1,1,1.2,1.6
			c0.3,0.6,0.4,1.2,0.4,1.9c0,0.9-0.2,1.7-0.5,2.4c-0.3,0.7-0.8,1.3-1.5,1.8c-0.6,0.5-1.4,0.9-2.4,1.2c-0.9,0.3-2,0.4-3.1,0.4
			c-0.7,0-1.4,0-2.1-0.1c-0.7-0.1-1.3-0.2-2-0.4c-0.6-0.2-1.2-0.3-1.8-0.5C170.9,35.5,170.4,35.4,170,35.1z"/>
	</g>
	<g>
		<rect x="197.8" y="14.4" class="st0" width="8.8" height="17.6"/>
		<rect x="197.8" y="34.1" class="st0" width="8.8" height="2.9"/>
		<rect x="197.8" y="32.7" class="st0" width="8.8" height="0.5"/>
		<rect x="197.8" y="12.6" class="st0" width="8.8" height="0.9"/>
		<rect x="197.8" y="8.9" class="st0" width="8.8" height="3.1"/>
		<rect x="197.8" y="12" class="st1" width="8.8" height="0.6"/>
		<rect x="197.8" y="32.1" class="st1" width="8.8" height="0.6"/>
		<rect x="197.8" y="13.5" class="st1" width="8.8" height="0.9"/>
		<rect x="197.8" y="33.2" class="st1" width="8.8" height="0.9"/>
	</g>
	<g>
		<rect x="189.5" y="34.4" class="st0" width="7.5" height="2.6"/>
		<rect x="189.5" y="7.1" class="st0" width="7.5" height="1"/>
		<rect x="189.5" y="1.8" class="st0" width="7.5" height="4.7"/>
		<path class="st0" d="M189.5,32.9h7.5V9.1h-7.5V32.9z M190.7,28.2h4.9v3h-4.9V28.2z"/>
		<rect x="189.5" y="6.5" class="st1" width="7.5" height="0.6"/>
		<rect x="189.5" y="8.1" class="st1" width="7.5" height="0.9"/>
		<rect x="189.5" y="32.9" class="st1" width="7.5" height="1.5"/>
		<rect x="190.7" y="28.2" class="st1" width="4.9" height="3"/>
	</g>
	<g>
		<rect x="12.4" y="20" class="st0" width="0.9" height="8.8"/>
		<rect x="14.2" y="20" class="st0" width="17.6" height="8.8"/>
		<rect x="8.7" y="20" class="st0" width="3.1" height="8.8"/>
		<rect x="32.5" y="20" class="st0" width="0.5" height="8.8"/>
		<rect x="33.9" y="20" class="st0" width="2.9" height="8.8"/>
		<rect x="11.8" y="20" class="st1" width="0.6" height="8.8"/>
		<rect x="31.9" y="20" class="st1" width="0.6" height="8.8"/>
		<rect x="13.3" y="20" class="st1" width="0.9" height="8.8"/>
		<rect x="33" y="20" class="st1" width="0.9" height="8.8"/>
	</g>
	<g>
		<path class="st0" d="M8.9,29.6v7.5h23.8v-7.5H8.9z M31,35.9h-3v-4.9h3V35.9z"/>
		<rect x="6.9" y="29.6" class="st0" width="1" height="7.5"/>
		<rect x="1.6" y="29.6" class="st0" width="4.7" height="7.5"/>
		<rect x="34.2" y="29.6" class="st0" width="2.6" height="7.5"/>
		<rect x="6.3" y="29.6" class="st1" width="0.6" height="7.5"/>
		<rect x="7.9" y="29.6" class="st1" width="0.9" height="7.5"/>
		<rect x="32.7" y="29.6" class="st1" width="1.5" height="7.5"/>
		<rect x="28" y="31.1" class="st1" width="3" height="4.9"/>
	</g>
</g>
</svg>
